<svg xmlns="http://www.w3.org/2000/svg" viewBox="0 0 163 163" fill="#FFFFFF">
  <path d="m97.14,70.49c2.39,2.03,5.32,2.25,8.14,1.22,6.75-2.47,10.75-10.88,10.04-16.89-.48-4.08-2.27-7.65-4.79-10.82-3.47-4.37-7.96-7.01-13.9-7.68.28.7.41,1.16.63,1.56,3.84,6.8,3.75,13.51-.34,20.2-.8,1.31-1.47,2.8-1.78,4.29-.64,2.97-.54,5.96,2,8.12Z"></path>
  <path d="m58.01,65.07c1.4.88,3.02,1.52,4.63,1.94,5.02,1.33,9.42-1.77,9.51-6.9.03-1.82-.57-3.92-1.56-5.45-3.22-4.97-8.01-7.68-13.92-7.91-8.61-.33-17.75,7.12-19.89,15.95-.2.81-.26,1.64-.43,2.74.66-.28,1-.39,1.31-.57,6.82-3.87,13.58-4.05,20.35.19Z"></path>
  <path d="m62.45,39.13c6.53,2,11.12,6,13.09,12.71.44,1.49.83,3.02,1.46,4.43,1.25,2.76,3.09,5.06,6.25,5.7,3.74.75,7.83-2.08,8.91-6.31,1.82-7.15-1.25-15.62-8.01-19.1-4.95-2.55-10.17-3.37-15.6-2.16-2.9.65-5.66,1.76-7.94,3.94.3.22.43.37.59.42.41.14.83.24,1.25.37Z"></path>
  <path d="m66.84,99.7c1.7-6.44-2.99-11.06-9.46-9.51-5.37,1.29-11.42,9.15-10.65,16.62.69,6.74,4.23,12.07,9.89,15.84,2.53,1.69,5.37,2.76,8.45,3.06.06-.3.14-.44.11-.53-.13-.35-.27-.7-.45-1.02-3.81-6.79-3.9-13.49.32-20.18.82-1.29,1.41-2.8,1.8-4.28Z"></path>
  <path d="m101.56,80.13c-2.1,2.51-2.28,5.62-.43,8.29,1.45,2.09,3.46,3.44,5.94,3.95,8.51,1.74,16.43-2.62,19.48-10.72,2.51-6.69,2.19-13.18-1.6-19.36-.33-.55-.79-1.02-1.36-1.75-.26.61-.41.86-.48,1.13-2.08,7.82-6.82,12.83-14.96,14.42-2.63.51-4.84,1.96-6.58,4.04Z"></path>
  <path d="m53.87,85.89c2.53-.54,4.79-1.79,6.49-3.85,2.2-2.68,2.35-5.91.39-8.61-1.37-1.89-3.21-3.26-5.47-3.7-6.63-1.27-12.57.39-16.87,5.61-4.25,5.16-5.41,11.39-4.03,17.98.62,2.95,1.76,5.67,3.87,8.1.26-.42.49-.65.56-.92,2.04-7.94,6.93-12.88,15.05-14.6Z"></path>
  <path d="m123.29,104.25c1.29-2.27,2.23-4.69,2.32-7.71-.89.43-1.4.64-1.89.9-6.42,3.44-12.76,3.67-19.2-.12-1.94-1.14-4.2-1.9-6.42-2.37-4.84-1.01-8.97,3.51-8.29,8.43.91,6.63,10.35,13.54,18.83,11.66,6.31-1.39,11.37-5.05,14.64-10.8Z"></path>
  <path d="m76.55,100.08c-3.56.51-5.8,2.96-6.68,6.31-1.98,7.49,1.65,15.9,8.19,19.17,4.2,2.1,8.62,2.96,13.24,2.44,3.7-.42,7.09-1.76,10.33-4.48-.94-.29-1.49-.4-1.98-.63-2.34-1.13-4.83-2.07-6.97-3.52-3.5-2.37-5.41-5.93-6.47-10-.41-1.56-.92-3.14-1.69-4.53-1.7-3.09-4.2-5.3-7.97-4.76Z"></path>
</svg>